<svg width="160" height="160" viewBox="0 0 160 160" fill="none" xmlns="http://www.w3.org/2000/svg">
<g id="Group">
<path id="Vector" fill-rule="evenodd" clip-rule="evenodd" d="M73.5018 109.598L67.8347 91.8273H47.9069L42.5189 109.598H30.7026L50.7996 46.8882H65.4072L85.7918 109.598H73.5018ZM54.6143 67.7295L49.7762 83.1744H65.8724L60.9412 67.7295C59.9786 64.56 59.1042 61.3643 58.3191 58.1462C58.1399 57.4326 57.9595 56.7193 57.7778 56.0063H57.5917L56.6274 59.9394C56.0015 62.5615 55.3587 65.2851 54.6143 67.7295ZM127.94 85.3144C127.94 87.4543 127.754 89.1291 127.567 90.1526H97.2359C97.515 98.3402 103.935 101.876 111.192 101.876C116.496 101.876 120.31 101.131 123.753 99.8289L125.428 107.737C121.52 109.319 116.123 110.622 109.61 110.622C94.9098 110.622 86.257 101.504 86.257 87.6404C86.257 75.0798 93.8864 63.2635 108.401 63.2635C123.194 63.2635 127.94 75.3589 127.94 85.3144ZM107.75 71.079C100.678 71.079 97.7011 77.4989 97.2359 82.151H117.147C117.231 77.9641 115.371 71.079 107.75 71.079Z" fill="white"/>
<path id="Vector_2" fill-rule="evenodd" clip-rule="evenodd" d="M124.337 2.4576C94.7784 -0.819199 64.9481 -0.819199 35.3893 2.4576C18.3711 4.36072 4.62635 17.7672 2.63018 34.8699C-0.876726 64.8512 -0.876726 95.1391 2.63018 125.12C4.62635 142.223 18.3627 155.63 35.3893 157.533C64.9482 160.806 94.7782 160.806 124.337 157.533C141.355 155.63 155.1 142.223 157.096 125.12C160.603 95.139 160.603 64.8512 157.096 34.8699C155.1 17.7672 141.364 4.36072 124.337 2.4576ZM36.7934 15.0605C65.419 11.8876 94.3075 11.8876 122.933 15.0605C134.183 16.3293 143.191 25.2021 144.502 36.3501C147.893 65.348 147.893 94.6423 144.502 123.64C143.824 129.096 141.326 134.164 137.412 138.026C133.499 141.887 128.398 144.316 122.933 144.921C94.3075 148.095 65.4189 148.095 36.7934 144.921C31.3288 144.316 26.2277 141.887 22.314 138.026C18.4004 134.164 15.9028 129.096 15.2246 123.64C11.8333 94.6423 11.8333 65.348 15.2246 36.3501C15.9028 30.8942 18.4004 25.8261 22.314 21.9646C26.2277 18.1032 31.3288 15.6653 36.7934 15.0605Z" fill="white"/>
</g>
</svg>
