<svg width="111" height="159" viewBox="0 0 111 159" fill="none" xmlns="http://www.w3.org/2000/svg">
<path id="Vector" d="M81.1295 59.4991H50.607V0H81.1295C97.6015 0 111 13.3427 111 29.7462C111 46.1497 97.6015 59.4991 81.1295 59.4991ZM60.393 49.7537H81.1295C92.2062 49.7537 101.214 40.7769 101.214 29.7529C101.214 18.7289 92.1995 9.752 81.1295 9.752H60.393V49.7537ZM60.393 59.4991H29.8772C13.4052 59.4991 0.0066522 46.1564 0.0066522 29.7529C0.0066522 13.3494 13.4052 0 29.8772 0H60.3997V59.4991H60.393ZM29.8772 9.74537C18.8005 9.74537 9.79275 18.7222 9.79275 29.7462C9.79275 40.7702 18.8005 49.7537 29.8772 49.7537H50.6136V9.74537H29.8772ZM60.393 109.246H29.8772C13.4052 109.246 0.0066522 95.9035 0.0066522 79.5C0.0066522 63.0965 13.4052 49.7537 29.8772 49.7537H60.3997V109.246H60.393ZM29.8772 59.4991C18.8005 59.4991 9.79275 68.476 9.79275 79.5C9.79275 90.524 18.8071 99.5009 29.8772 99.5009H50.6136V59.4991H29.8772ZM30.0369 159C13.4783 159 0 145.657 0 129.254C0 112.85 13.3985 99.5075 29.8705 99.5075H60.393V128.929C60.393 145.512 46.775 159 30.0369 159ZM29.8772 109.246C24.5526 109.253 19.4482 111.363 15.6831 115.112C11.9181 118.861 9.79979 123.945 9.79275 129.247C9.79275 140.278 18.8737 149.248 30.0435 149.248C41.3863 149.248 50.6203 140.132 50.6203 128.923V109.246H29.8772ZM81.1295 109.246H80.4775C64.0055 109.246 50.607 95.9035 50.607 79.5C50.607 63.0965 64.0055 49.7537 80.4775 49.7537H81.1295C97.6015 49.7537 111 63.0965 111 79.5C111 95.9035 97.6015 109.246 81.1295 109.246ZM80.4841 59.4991C69.4074 59.4991 60.3997 68.476 60.3997 79.5C60.3997 90.524 69.4141 99.5009 80.4841 99.5009H81.1361C92.2128 99.5009 101.221 90.524 101.221 79.5C101.221 68.476 92.1995 59.4991 81.1295 59.4991H80.4841Z" fill="white"/>
</svg>
