<svg width="161" height="158" viewBox="0 0 161 158" fill="none" xmlns="http://www.w3.org/2000/svg">
<path d="M95.1133 61.4197L95.1271 61.5777C95.2365 62.8378 95.3417 64.0494 95.3417 65.3137M95.1133 61.4197L95.4558 69.7803L95.3417 65.3137M95.1133 61.4197C95.0938 61.2841 95.1234 61.146 95.1967 61.0304M95.1133 61.4197L100.619 60.7897M95.3417 65.3137L95.5129 65.3093V106.029M95.3417 65.3137H95.5129V66.3314H100.911M100.911 66.3314L100.996 69.6387L100.997 69.6727L100.997 69.7067L101.054 74.0016L101.055 74.0384V74.0752V101.175M100.911 66.3314H102.01M100.911 66.3314L100.883 65.2389C100.879 63.7543 100.757 62.3512 100.653 61.1557C100.647 61.0834 100.64 61.0119 100.634 60.9411L100.621 60.7897H105.674C105.741 60.7897 105.807 60.7953 105.871 60.806C105.805 60.8643 105.739 60.923 105.674 60.982C105.224 61.388 104.788 61.8103 104.366 62.2486C104.278 62.3402 104.19 62.4325 104.103 62.5255C103.844 62.8023 103.591 63.0853 103.344 63.3745L105.674 65.3648L107.557 66.9744L113.099 67.0492C113.119 65.5615 112.994 64.0774 112.728 62.6177C113.054 62.4202 113.386 62.2307 113.722 62.0496C116.376 60.5709 119.364 59.8018 122.399 59.8162C122.799 59.759 123.141 60.0453 123.198 60.4462M101.055 101.175H96.4263H96.0027L95.5842 101.239C95.8635 101.196 96.1453 101.178 96.4263 101.185C96.7751 101.194 97.1227 101.242 97.4626 101.327C98.0772 101.482 98.6532 101.758 99.1573 102.137L96.4263 105.767L96.308 105.924M101.055 101.175V106.029H96.4263H96.3206H96.2799H96.229H96.1292H96.1291H95.5129M101.055 101.175H102.872M96.308 105.924L96.3062 105.924L96.3045 105.925L95.5129 106.029M96.308 105.924L96.4263 105.767L99.1575 102.137C99.6617 102.516 100.085 102.992 100.402 103.536C100.719 104.08 100.925 104.681 101.007 105.304L96.4263 105.908L96.3095 105.924L96.3093 105.924L96.308 105.924ZM95.5129 106.029C95.5269 106.135 95.5617 106.237 95.6154 106.329C95.6691 106.421 95.7406 106.501 95.8257 106.565C95.9107 106.629 96.0076 106.675 96.1108 106.701C96.2139 106.727 96.3212 106.732 96.4263 106.716H107.672C108.185 106.716 108.414 106.487 108.414 105.915V76.7094C109.213 75.7932 110.24 75.106 111.325 74.5906C114.771 73.0591 118.519 72.3345 122.285 72.4718M102.872 101.175V105.915C102.872 105.65 102.892 104.121 104.2 102.732C105.586 101.259 107.235 101.175 107.672 101.175H102.872ZM102.872 101.175V80.989M102.872 80.989L106.529 76.7094L107.334 75.7673L110.258 72.3448L110.303 72.2917L111.771 70.5742C112.764 69.412 113.967 68.3826 115.327 67.5252M102.872 80.989V76.7094V74.6322L104.237 73.0668C105.672 71.4217 107.391 70.3243 108.947 69.5853L109.01 69.5551L109.074 69.5266C109.4 69.3819 109.727 69.2431 110.057 69.1102C111.766 68.4216 113.53 67.8918 115.327 67.5252M102.872 80.989L101.809 82.233L102.016 66.8995C102.019 66.7099 102.017 66.5205 102.01 66.3314M115.327 67.5252C116.098 67.3679 116.875 67.2407 117.657 67.1438M115.327 67.5252C115.659 67.3161 116 67.1173 116.349 66.9292L116.385 66.91L116.42 66.8904C116.822 66.6665 117.235 66.4663 117.657 66.2904M117.657 67.1438V71.8419C117.657 71.4016 117.723 70.6687 118.098 69.8422C118.501 68.9546 119.14 68.2281 119.896 67.7222C120.592 67.2572 121.233 67.0791 121.594 67.006C121.957 66.9326 122.215 66.9301 122.285 66.9301V71.8419V72.4718M117.657 67.1438C119.254 66.9458 120.869 66.8748 122.487 66.9338L122.308 71.8419L122.285 72.4718M117.657 67.1438V66.2904M122.285 72.4718C122.913 72.4718 123.198 72.3 123.198 71.8419V60.6752V60.4462M123.198 60.4462L122.504 60.5451L122.396 60.5605L121.59 60.6752L117.712 61.2274C118.007 63.2992 119.827 65.3113 122.373 65.3539C122.636 65.3584 122.907 65.3417 123.185 65.3019L122.781 65.3598L122.373 65.3578C120.751 65.3501 119.147 65.6688 117.657 66.2904M123.198 60.4462H122.489H122.396H117.657V60.6752V66.2904M102.01 66.3314H105.674C103.679 66.3314 102.072 65.0176 101.515 63.3075C101.472 63.1754 101.435 63.0409 101.405 62.9045L101.45 63.1086L101.511 63.3088C101.807 64.2909 101.975 65.307 102.01 66.3314ZM100.619 60.7897H99.4896H95.5129M100.619 60.7897C100.624 60.8402 100.629 60.8907 100.633 60.9412C100.719 62.0117 100.456 63.0855 99.8763 63.9988L95.7266 61.3665L99.8762 63.999C99.5776 64.4696 99.2041 64.8835 98.7736 65.2259L100.619 60.7897ZM95.5129 60.7897C95.3822 60.8294 95.27 60.9148 95.1967 61.0304M95.5129 60.7897L95.6789 61.3362L95.5129 60.7897ZM95.1967 61.0304L95.5129 61.231L95.1967 61.0304ZM56.6618 51.936L51.44 52.2379V57.4684V76.7094V81.8614L51.3829 81.86V87.5325V101.175H50.0792V51.8557L52.7711 51.7846L52.7896 51.7842L57.704 51.6709L62.8337 51.6143C67.085 51.6167 70.2435 52.1436 72.6121 53.0346L72.6928 53.065L72.7744 53.0928C74.8443 53.7989 76.7464 54.959 78.3135 56.4818C79.5521 57.7318 80.5351 59.2646 81.1714 60.9655C81.8216 62.8034 82.1508 64.6271 82.1508 66.5162C82.1508 70.5806 81.217 73.4437 79.7532 75.4994C78.1359 77.7709 75.8556 79.5016 73.1543 80.5026C71.5685 81.087 69.843 81.4969 67.9473 81.7558C68.7784 81.5757 69.602 81.3554 70.4144 81.0946C73.3526 80.24 75.8011 78.5142 77.6447 76.4125L77.6867 76.3647L77.7276 76.3158C79.9896 73.6144 80.7607 70.3107 80.7892 67.0492C80.9544 64.1547 80.2086 61.278 78.6523 58.8271C77.0631 56.3242 74.7122 54.397 71.9441 53.3327C69.15 52.2376 66.1641 51.7198 63.1657 51.8103C60.9969 51.7688 58.8274 51.8107 56.6618 51.936ZM124.74 6.45833H36.2604C28.3507 6.45833 20.7686 9.61061 15.1809 15.216C9.59392 20.8208 6.45833 28.4188 6.45833 36.3376V121.662C6.45833 138.164 19.7687 151.542 36.2604 151.542H124.74C141.231 151.542 154.542 138.164 154.542 121.662V36.3376C154.542 19.8364 141.231 6.45833 124.74 6.45833Z" fill="#171516" stroke="#EFEFEF" stroke-width="11.0833"/>
</svg>
