<svg width="158" height="157" viewBox="0 0 158 157" fill="none" xmlns="http://www.w3.org/2000/svg">
<path id="Vector" d="M152.386 16.6009L119.884 0.981911C118.046 0.0923375 115.976 -0.202827 113.962 0.137478C111.948 0.477783 110.09 1.43664 108.647 2.88065L46.3922 59.621L19.2618 39.0702C18.0399 38.1371 16.5289 37.662 14.9923 37.7278C13.4557 37.7936 11.991 38.3961 10.8535 39.4302L2.16387 47.3408C1.48468 47.9539 0.941332 48.702 0.568689 49.5372C0.196046 50.3725 0.00234577 51.2763 2.11742e-05 52.1907C-0.00230342 53.1051 0.186799 54.0099 0.555191 54.847C0.923582 55.6841 1.46312 56.435 2.13918 57.0515L25.6704 78.4999L2.13918 99.9482C1.46312 100.565 0.923582 101.316 0.555191 102.153C0.186799 102.99 -0.00230342 103.895 2.11742e-05 104.809C0.00234577 105.723 0.196046 106.627 0.568689 107.462C0.941332 108.298 1.48468 109.046 2.16387 109.659L10.8535 117.57C11.991 118.604 13.4557 119.206 14.9923 119.272C16.5289 119.338 18.0399 118.863 19.2618 117.93L46.3922 97.3541L108.676 154.119C110.114 155.563 111.968 156.522 113.978 156.862C115.988 157.203 118.055 156.908 119.889 156.018L152.421 140.374C154.096 139.57 155.509 138.309 156.497 136.736C157.484 135.163 158.005 133.344 158 131.487V25.4781C158 21.7004 155.813 18.2333 152.396 16.591L152.386 16.6009ZM118.516 114.339L71.2516 78.5048L118.516 42.6704V114.339Z" fill="white"/>
</svg>
