<svg width="160" height="160" viewBox="0 0 160 160" fill="none" xmlns="http://www.w3.org/2000/svg">
<g id="Group">
<path id="Vector" d="M152.5 39.3333V120.167C152.5 128.742 149.093 136.966 143.03 143.03C136.966 149.093 128.742 152.5 120.167 152.5H39.3333C30.758 152.5 22.5339 149.093 16.4702 143.03C10.4065 136.966 7 128.742 7 120.167V39.3333C7 30.758 10.4065 22.5339 16.4702 16.4702C22.5339 10.4065 30.758 7 39.3333 7H120.167C128.742 7 136.966 10.4065 143.03 16.4702C149.093 22.5339 152.5 30.758 152.5 39.3333Z" stroke="white" stroke-width="13.25" stroke-linecap="round" stroke-linejoin="round"/>
<path id="Vector_2" d="M39.333 112.083V79.7498M39.333 79.7498V47.4165H55.4997C59.7873 47.4165 63.8994 49.1198 66.9312 52.1516C69.9631 55.1835 71.6663 59.2955 71.6663 63.5832C71.6663 67.8708 69.9631 71.9829 66.9312 75.0147C63.8994 78.0466 59.7873 79.7498 55.4997 79.7498H39.333ZM120.166 71.6665C117.693 66.7114 112.625 63.5832 107.088 63.5832H104C100.784 63.5832 97.6999 64.8606 95.426 67.1345C93.1521 69.4084 91.8747 72.4924 91.8747 75.7082C91.8747 78.9239 93.1521 82.008 95.426 84.2818C97.6999 86.5557 100.784 87.8332 104 87.8332H108.041C111.257 87.8332 114.341 89.1106 116.615 91.3845C118.889 93.6584 120.166 96.7424 120.166 99.9582C120.166 103.174 118.889 106.258 116.615 108.532C114.341 110.806 111.257 112.083 108.041 112.083H104.954C102.238 112.083 99.576 111.327 97.2659 109.899C94.9559 108.472 93.0891 106.429 91.8747 104" stroke="white" stroke-width="13.25" stroke-linecap="round" stroke-linejoin="round"/>
</g>
</svg>
